<svg width="43.75" height="84.375" viewBox="0 0 43.75 84.375" xmlns="http://www.w3.org/2000/svg"><g id="svgGroup" stroke-linecap="round" fill-rule="evenodd" font-size="9pt" stroke="#000" stroke-width="0.25mm" fill="#000" style="stroke:#000;stroke-width:0.25mm;fill:#000"><path d="M 18.75 45.313 L 18.75 76.563 Q 18.75 79.492 17.676 81.079 Q 16.602 82.666 14.844 83.398 Q 13.086 84.131 10.84 84.253 Q 8.594 84.375 6.25 84.375 L 0 84.375 L 0 0 L 6.25 0 Q 9.18 0 11.499 0.122 Q 13.818 0.244 15.43 0.977 Q 17.041 1.709 17.896 3.296 Q 18.75 4.883 18.75 7.813 L 18.75 34.375 Q 18.75 36.719 17.578 37.988 Q 16.406 39.258 14.063 39.893 Q 16.406 40.43 17.578 41.699 Q 18.75 42.969 18.75 45.313 Z M 43.75 7.813 L 43.75 76.563 Q 43.75 79.492 42.676 81.079 Q 41.602 82.666 39.844 83.398 Q 38.086 84.131 35.84 84.253 Q 33.594 84.375 31.25 84.375 L 25 84.375 L 25 0 L 31.25 0 Q 33.594 0 35.84 0.122 Q 38.086 0.244 39.844 0.977 Q 41.602 1.709 42.676 3.296 Q 43.75 4.883 43.75 7.813 Z M 37.5 76.563 L 37.5 7.813 Q 37.5 6.641 37.183 6.006 Q 36.865 5.371 36.133 5.078 Q 35.4 4.785 34.204 4.736 Q 33.008 4.688 31.25 4.688 L 31.25 79.688 Q 33.008 79.688 34.204 79.639 Q 35.4 79.59 36.133 79.297 Q 36.865 79.004 37.183 78.369 Q 37.5 77.734 37.5 76.563 Z M 12.5 76.563 L 12.5 45.313 Q 12.5 44.727 12.476 44.165 Q 12.451 43.604 12.305 43.164 Q 12.158 42.725 11.841 42.456 Q 11.523 42.188 10.938 42.188 L 6.25 42.188 L 6.25 79.688 Q 8.008 79.688 9.204 79.639 Q 10.4 79.59 11.133 79.297 Q 11.865 79.004 12.183 78.369 Q 12.5 77.734 12.5 76.563 Z M 6.25 4.688 L 6.25 37.5 L 10.938 37.5 Q 11.523 37.5 11.841 37.231 Q 12.158 36.963 12.305 36.523 Q 12.451 36.084 12.476 35.522 Q 12.5 34.961 12.5 34.375 L 12.5 7.813 Q 12.5 6.641 12.183 6.006 Q 11.865 5.371 11.133 5.078 Q 10.4 4.785 9.204 4.736 Q 8.008 4.688 6.25 4.688 Z" vector-effect="non-scaling-stroke"/></g></svg>
